<?xml version="1.0" encoding="UTF-8" standalone="no"?>
<svg
   id="svg4953"
   version="1.1"
   viewBox="0 0 64.938395 49.507959"
   height="187.1167"
   width="245.43645"
   xmlns="http://www.w3.org/2000/svg"
   xmlns:svg="http://www.w3.org/2000/svg"
   xmlns:rdf="http://www.w3.org/1999/02/22-rdf-syntax-ns#"
   xmlns:cc="http://creativecommons.org/ns#"
   xmlns:dc="http://purl.org/dc/elements/1.1/">
  <title
     id="title1233">Workflow RO-Crate logo</title>
  <defs
     id="defs4947">
    <marker
       style="overflow:visible"
       id="RoundedArrow"
       refX="0"
       refY="0"
       orient="auto-start-reverse"
       markerWidth="2.5861046"
       markerHeight="2.5"
       viewBox="0 0 6.1347524 5.9304951"
       preserveAspectRatio="xMidYMid"
       markerUnits="strokeWidth">
      <path
         transform="scale(0.7)"
         d="m -0.21114562,-4.1055728 6.42229122,3.21114561 a 1,1 90 0 1 0,1.78885438 L -0.21114562,4.1055728 A 1.236068,1.236068 31.717474 0 1 -2,3 v -6 a 1.236068,1.236068 148.28253 0 1 1.78885438,-1.1055728 z"
         style="fill:context-stroke;fill-rule:evenodd;stroke:none"
         id="path1367" />
    </marker>
  </defs>
  <metadata
     id="metadata4950">
    <rdf:RDF>
      <cc:Work
         rdf:about="">
        <dc:format>image/svg+xml</dc:format>
        <dc:type
           rdf:resource="http://purl.org/dc/dcmitype/StillImage" />
        <dc:title>Workflow RO-Crate logo</dc:title>
        <cc:license
           rdf:resource="https://www.apache.org/licenses/LICENSE-2.0" />
        <dc:date>2020-03-17</dc:date>
        <dc:creator>
          <cc:Agent>
            <dc:title>Stian Soiland-Reyes</dc:title>
          </cc:Agent>
        </dc:creator>
        <dc:contributor>
          <cc:Agent>
            <dc:title />
          </cc:Agent>
        </dc:contributor>
        <dc:publisher>
          <cc:Agent>
            <dc:title />
          </cc:Agent>
        </dc:publisher>
        <dc:rights>
          <cc:Agent>
            <dc:title>The University of Manchester</dc:title>
          </cc:Agent>
        </dc:rights>
        <dc:source>https://github.com/ResearchObject/ro-crate/blob/master/docs/assets/img/ro-crate.svg</dc:source>
        <dc:description />
      </cc:Work>
    </rdf:RDF>
  </metadata>
  <g
     id="g4898"
     transform="translate(-1.058351,-1.0583295)">
    <g
       transform="matrix(0.18392081,0,0,0.18392081,164.9943,1.84859)"
       id="g984">
      <g
         id="g4934"
         transform="matrix(0.3527778,0,0,-0.3527778,-1077.9314,500.99027)">
        <path
           id="path1392"
           d="m 1244.7289,1266.624 c 21.9,-21.9 21.9,-57.3 0,-79.2 l -30,-30.1 -97.9,97.9 30.1,30.1 c 21.9,21.9 57.3,21.9 79.2,0 z m -220,-299.20002 c -6.1,-6.1 -13.6,-10.8 -21.9,-13.5 l -88.79996,-29.60001 c -8.6,-2.9 -18.1,-0.6 -24.6,5.8 -6.5,6.4 -8.7,15.9 -5.8,24.60001 l 29.6,88.80002 c 2.8,8.2 7.4,15.7 13.5,21.9 l 167.39996,167.3 98,-98 z"
           style="fill:#4d4e4c;stroke-width:0.726351" />
        <path
           style="fill:none;stroke:#4d4e4c;stroke-width:32.6227;stroke-linecap:round;stroke-linejoin:miter;stroke-dasharray:none;stroke-opacity:1;marker-start:url(#RoundedArrow)"
           d="m 1037.7193,1291.0061 c -21.9939,4.8102 -45.10248,7.0914 -68.92185,6.5904 -104.4102,-2.1963 -152.0017,-0.802 -152.0017,-0.802 h 10e-5 V 777.249 c 0,0 83.7242,-0.21352 164.1594,-1.75989 114.66075,2.39976 252.70725,86.08923 252.70725,276.87249 0,21.2861 -2.4907,41.6079 -7.1925,60.79"
           id="path1636" />
      </g>
      <g
         aria-label="{"
         style="font-style:normal;font-weight:normal;font-size:70.5254px;line-height:1.25;font-family:sans-serif;letter-spacing:0px;word-spacing:0px;fill:#916f6f;fill-opacity:1;stroke:none;stroke-width:1.76313"
         id="text13">
        <path
           d="m -891.33986,115.23347 v 18.95722 h 7.10895 c 5.75487,0 14.55643,-0.33853 21.32687,6.77043 6.77043,6.43191 8.80156,16.24904 8.80156,30.80547 0,10.49418 -1.01556,20.64983 -1.01556,33.85217 0,12.18678 1.01556,35.54478 18.61869,49.08565 14.89495,11.17122 32.15956,10.15565 53.14791,10.15565 h 12.18678 v -18.95721 h -12.5253 c -13.87939,0 -24.71209,0.67704 -33.85217,-5.75487 -12.18679,-8.12452 -13.87939,-23.01948 -13.87939,-34.52922 0,-9.14008 1.01556,-17.94165 1.01556,-28.43582 0,-35.54478 -15.572,-48.4086 -28.43582,-52.80938 10.49417,-4.40079 18.95721,-12.52531 24.03504,-22.68096 4.40078,-9.140084 5.41635,-19.295735 5.41635,-27.081734 0,-8.463042 -1.01557,-15.91052 -1.01557,-24.03504 0,-6.770434 0.67704,-23.357998 13.54087,-31.482518 9.14008,-5.754869 19.29574,-4.062261 34.19069,-4.062261 h 11.84826 V -4.2646895 h -10.49417 c -17.94165,0 -39.60704,-1.3540867 -55.85608,13.540868 -14.89496,13.5408675 -16.92609,32.4980825 -16.92609,45.3619075 0,8.124521 1.01557,15.91052 1.01557,24.035041 0,8.463042 -1.01557,20.311301 -8.80157,28.774343 -7.44747,7.786 -16.58756,7.786 -22.68095,7.786 z"
           style="font-style:normal;font-variant:normal;font-weight:normal;font-stretch:normal;font-size:338.522px;font-family:Inconsolata;-inkscape-font-specification:Inconsolata;fill:#916f6f;stroke-width:1.76313"
           id="path3720" />
      </g>
      <g
         aria-label="}"
         style="font-style:normal;font-weight:normal;font-size:70.5254px;line-height:1.25;font-family:sans-serif;letter-spacing:0px;word-spacing:0px;fill:#916f6f;fill-opacity:1;stroke:none;stroke-width:1.76313"
         id="text13-3">
        <path
           d="m -538.26184,115.23348 h -6.43191 c -6.0934,0 -15.572,0 -22.68096,-7.786 -8.12452,-8.463046 -8.80157,-20.311307 -8.80157,-28.77435 0,-8.124522 0.67705,-15.910521 0.67705,-24.035043 0,-12.863826 -1.69261,-31.821042 -16.58757,-45.3619115 -16.24904,-14.894956 -37.91443,-13.5408691 -56.1946,-13.5408691 h -10.15566 V 15.031045 h 11.50974 c 14.89496,0 25.38913,-1.692609 34.1907,4.062261 13.20235,8.124521 13.87939,24.712086 13.87939,31.48252 0,8.124522 -1.01557,15.572 -1.01557,24.035043 0,7.786 0.67705,17.941652 5.07783,27.081741 5.07783,10.15565 13.87939,18.28017 24.37356,22.68095 -12.86382,4.40079 -28.77434,17.26461 -28.77434,52.80939 0,10.49418 1.01556,19.29574 1.01556,28.43583 0,11.50974 -1.69261,26.40469 -13.87939,34.52921 -9.14009,6.43192 -19.63426,5.75487 -33.51365,5.75487 h -12.5253 v 18.95722 h 12.18678 c 20.98835,0 38.25295,1.01557 52.80939,-10.15565 17.94165,-13.54087 18.95721,-36.89887 18.95721,-49.08565 0,-13.20235 -1.35408,-23.358 -1.35408,-33.85217 0,-14.55644 2.36965,-24.37357 8.80156,-30.80548 7.10896,-7.10896 15.91052,-6.77044 21.66539,-6.77044 h 6.77044 z"
           style="font-style:normal;font-variant:normal;font-weight:normal;font-stretch:normal;font-size:338.522px;font-family:Inconsolata;-inkscape-font-specification:Inconsolata;fill:#916f6f;stroke-width:1.76313"
           id="path3723" />
      </g>
    </g>
  </g>
</svg>
